<?xml version="1.0" encoding="UTF-8" standalone="no"?><!DOCTYPE svg PUBLIC "-//W3C//DTD SVG 1.1//EN" "http://www.w3.org/Graphics/SVG/1.1/DTD/svg11.dtd"><svg width="100%" height="100%" viewBox="0 0 24 24" version="1.1" xmlns="http://www.w3.org/2000/svg" xmlns:xlink="http://www.w3.org/1999/xlink" xml:space="preserve" xmlns:serif="http://www.serif.com/" style="fill-rule:evenodd;clip-rule:evenodd;stroke-linejoin:round;stroke-miterlimit:1.41421;"><path id="Phone" d="M19,24l-14,0c-1.656,0 -3,-1.613 -3,-3.6l0,-16.8c0,-1.987 1.344,-3.6 3,-3.6l14,0c1.656,0 3,1.613 3,3.6l0,16.8c0,1.987 -1.344,3.6 -3,3.6Zm-0.676,-8c0.892,0.004 0.911,2.007 0,2l-12.647,0c-0.906,0.003 -0.9,-2 0,-2c4.238,0 8.254,-0.022 12.647,0Zm0,-5c0.892,0.004 0.911,2.007 0,2l-12.647,0c-0.906,0.003 -0.9,-2 0,-2c4.238,0 8.254,-0.022 12.647,0Zm0,-5c0.892,0.004 0.911,2.007 0,2l-12.647,0c-0.906,0.003 -0.9,-2 0,-2c4.238,0 8.254,-0.022 12.647,0Z" style="fill:#da1e1e;"/></svg>