<?xml version="1.0" encoding="UTF-8" standalone="no"?><!DOCTYPE svg PUBLIC "-//W3C//DTD SVG 1.1//EN" "http://www.w3.org/Graphics/SVG/1.1/DTD/svg11.dtd"><svg width="100%" height="100%" viewBox="0 0 330 114" version="1.1" xmlns="http://www.w3.org/2000/svg" xmlns:xlink="http://www.w3.org/1999/xlink" xml:space="preserve" xmlns:serif="http://www.serif.com/" style="fill-rule:evenodd;clip-rule:evenodd;stroke-linejoin:round;stroke-miterlimit:1.41421;"><path d="M270.649,15.059c-36.446,-16.198 -50.214,-15.041 -82.9,-15.041c-48.367,0 -61.149,13.016 -78.793,22.851c-17.645,9.835 -0.289,6.653 -55.827,13.016c-23.219,2.66 -36.544,5.488 -44.404,10.584c-8.025,5.203 -10.986,16.915 -6.89,25.559c0.285,0.602 1.185,0.395 1.168,-0.271c-0.219,-8.823 5.503,-29.517 64.021,-29.517c49.929,0 20.542,-3.163 64.515,-24.915c45.679,-22.597 101.946,-6.821 117.831,-1.182c16.589,5.89 42.723,15.446 22.44,30.269c-14.257,10.418 -60.488,17.368 -86.704,20.578c-1.148,0.14 -1.017,1.845 0.14,1.806c35.412,-1.196 111.544,-7.487 144.026,-38.888c5.059,-4.893 -22.177,1.349 -58.623,-14.849" style="fill:url(#_Linear1);fill-rule:nonzero;"/><path d="M326.243,37.44c-5.824,4.979 -12.784,9.281 -20.498,12.995l0,4.363l20.498,0c2.007,0 3.634,-1.627 3.634,-3.633l0,-10.091c0,-2.007 -1.627,-3.634 -3.634,-3.634" style="fill:#8a1f22;fill-rule:nonzero;"/><g transform="matrix(1,0,0,1,-92.2236,-560.428)"><text x="112.313px" y="648.446px" style="font-family:'Arial-Black', 'Arial', sans-serif;font-weight:900;font-size:50.605px;fill:#f2f2f2;">A</text><text x="144.696px" y="648.446px" style="font-family:'Arial-Black', 'Arial', sans-serif;font-weight:900;font-size:50.605px;fill:#f2f2f2;">U</text><text x="182.3px" y="648.446px" style="font-family:'Arial-Black', 'Arial', sans-serif;font-weight:900;font-size:50.605px;fill:#f2f2f2;">T</text><text x="213.316px" y="648.446px" style="font-family:'Arial-Black', 'Arial', sans-serif;font-weight:900;font-size:50.605px;fill:#f2f2f2;">O</text><text x="266.847px" y="648.446px" style="font-family:'ArialMT', 'Arial', sans-serif;font-size:50.605px;fill:#f2f2f2;">B<tspan x="297.851px 334.463px 368.259px " y="648.446px 648.446px 648.446px ">ODY</tspan></text></g><text x="128.004px" y="113.095px" style="font-family:'ArialMT', 'Arial', sans-serif;font-size:20px;fill:#f2f2f2;">R<tspan x="140.373px 151.638px 161.418px 172.683px 176.165px 188.533px " y="113.095px 113.095px 113.095px 113.095px 113.095px 113.095px ">EPAIRS</tspan></text><defs><linearGradient id="_Linear1" x1="0" y1="0" x2="1" y2="0" gradientUnits="userSpaceOnUse" gradientTransform="matrix(258.07,0,0,258.07,5.68434e-14,36.1923)"><stop offset="0" style="stop-color:#e53935;stop-opacity:1"/><stop offset="1" style="stop-color:#8a1f22;stop-opacity:1"/></linearGradient></defs></svg>