<?xml version="1.0" encoding="UTF-8" standalone="no"?><!DOCTYPE svg PUBLIC "-//W3C//DTD SVG 1.1//EN" "http://www.w3.org/Graphics/SVG/1.1/DTD/svg11.dtd"><svg width="100%" height="100%" viewBox="0 0 24 24" version="1.1" xmlns="http://www.w3.org/2000/svg" xmlns:xlink="http://www.w3.org/1999/xlink" xml:space="preserve" xmlns:serif="http://www.serif.com/" style="fill-rule:evenodd;clip-rule:evenodd;stroke-linecap:round;stroke-linejoin:round;"><path d="M12.369,22.54l0.01,0.006c1.773,1.13 4.114,0.873 5.6,-0.614l0.63,-0.63c0.582,-0.582 0.582,-1.539 0,-2.121l-2.652,-2.652c-0.582,-0.582 -1.539,-0.582 -2.121,0c-0.281,0.281 -0.663,0.44 -1.061,0.44c-0.398,0 -0.78,-0.159 -1.061,-0.44l-4.244,-4.242c-0.582,-0.582 -0.582,-1.539 0,-2.121c0.281,-0.281 0.44,-0.663 0.44,-1.061c0,-0.398 -0.159,-0.78 -0.44,-1.061l-2.652,-2.651c-0.582,-0.582 -1.539,-0.582 -2.121,0l-0.63,0.629c-1.487,1.486 -1.744,3.827 -0.614,5.6l0.006,0.01c2.906,4.299 6.61,8.002 10.91,10.908Z" style="fill:none;stroke:#fff;stroke-width:1.5px;"/><path d="M11.249,8.25c2.469,0 4.5,2.031 4.5,4.5" style="fill:none;stroke:#fff;stroke-width:1.5px;"/><path d="M11.249,4.5c4.526,0 8.25,3.724 8.25,8.25" style="fill:none;stroke:#fff;stroke-width:1.5px;"/><path d="M11.249,0.75c6.583,0 12,5.417 12,12" style="fill:none;stroke:#fff;stroke-width:1.5px;"/></svg>