<?xml version="1.0" encoding="UTF-8" standalone="no"?><!DOCTYPE svg PUBLIC "-//W3C//DTD SVG 1.1//EN" "http://www.w3.org/Graphics/SVG/1.1/DTD/svg11.dtd"><svg width="100%" height="100%" viewBox="0 0 24 24" version="1.1" xmlns="http://www.w3.org/2000/svg" xmlns:xlink="http://www.w3.org/1999/xlink" xml:space="preserve" xmlns:serif="http://www.serif.com/" style="fill-rule:evenodd;clip-rule:evenodd;stroke-linejoin:round;stroke-miterlimit:1.41421;"><path d="M20.4,24l-16.8,0c-1.987,0 -3.6,-1.613 -3.6,-3.6l0,-16.8c0,-1.987 1.613,-3.6 3.6,-3.6l16.8,0c1.987,0 3.6,1.613 3.6,3.6l0,16.8c0,1.987 -1.613,3.6 -3.6,3.6Zm-8.138,-4.668l0.007,0.004c1.262,0.786 2.926,0.607 3.983,-0.427l0.448,-0.438c0.414,-0.405 0.414,-1.071 0,-1.476l-1.886,-1.845c-0.414,-0.404 -1.095,-0.404 -1.509,0c-0.2,0.196 -0.471,0.306 -0.754,0.306c-0.283,0 -0.555,-0.11 -0.755,-0.306l-3.018,-2.951c-0.414,-0.405 -0.414,-1.07 0,-1.475c0.2,-0.196 0.313,-0.462 0.313,-0.738c0,-0.277 -0.113,-0.543 -0.313,-0.738l-1.886,-1.845c-0.414,-0.404 -1.095,-0.404 -1.509,0l-0.448,0.438c-1.057,1.034 -1.24,2.662 -0.436,3.896l0.004,0.007c2.067,2.99 4.701,5.566 7.759,7.588Zm-0.68,-15.685c4.558,0.086 8.758,3.931 8.939,8.533c0.029,0.749 -1.006,1.533 -1.055,0.041c-0.185,-4.044 -3.852,-7.331 -8.045,-7.522c-1.048,-0.13 -0.537,-1.057 0.161,-1.052Zm-0.034,2.608c3.3,0.062 6.291,2.928 6.313,6.263c-0.005,0.186 -0.032,0.209 -0.087,0.294c-0.286,0.433 -0.93,0.214 -0.979,-0.622c-0.192,-2.651 -2.572,-4.772 -5.367,-4.882c-0.186,-0.019 -0.206,-0.047 -0.286,-0.109c-0.371,-0.289 -0.227,-0.948 0.406,-0.944Zm0.013,2.609c1.924,0.073 3.607,1.719 3.633,3.65c-0.008,0.651 -0.925,0.729 -1.086,-0.384c-0.216,-1.26 -1.409,-2.103 -2.701,-2.215c-0.58,-0.079 -0.576,-1.06 0.154,-1.051Z" style="fill:#da1e1e;"/></svg>